Coordinates
version=1
nRows=19
nColumns=36
inDegrees=yes

Units are S.I. units (second, meters, Newtons, ...)
If the header above contains a line with 'inDegrees', this indicates whether rotational values are in degrees (yes) or radians (no).

endheader
time	pelvis_tilt	pelvis_list	pelvis_rotation	pelvis_tx	pelvis_ty	pelvis_tz	hip_flexion_r	hip_adduction_r	hip_rotation_r	knee_angle_r	knee_angle_r_beta	ankle_angle_r	subtalar_angle_r	mtp_angle_r	hip_flexion_l	hip_adduction_l	hip_rotation_l	knee_angle_l	knee_angle_l_beta	ankle_angle_l	subtalar_angle_l	mtp_angle_l	lumbar_extension	lumbar_bending	lumbar_rotation	arm_flex_r	arm_add_r	arm_rot_r	elbow_flex_r	pro_sup_r	arm_flex_l	arm_add_l	arm_rot_l	elbow_flex_l	pro_sup_l
      2.02000000	    -16.32921557	     -0.94793245	      0.66779948	     -0.53058067	      1.15080997	     -0.59375132	     32.63087710	     -6.88834462	    -10.84810595	     13.57586410	      0.23694353	    -29.34037660	     -6.52394098	     -6.50612248	     35.46433190	     -6.77416169	     -4.03830126	     15.56408688	      0.27164456	    -29.46105426	     -0.99647739	     -6.50612248	    -14.25562757	      1.05412403	     -3.64627298	     -4.56413351	    -15.84799231	      4.16260980	     28.17872409	    108.78264053	    -12.02470148	    -11.74847521	    -12.69736277	     31.72448414	    108.58830966
      2.03000000	    -16.52729467	     -0.93238449	      0.75738225	     -0.52056039	      1.13231290	     -0.59424574	     33.41807553	     -7.27924671	    -12.08821068	     11.82170705	      0.20632771	    -28.97007214	     -3.63957414	     -6.68196441	     36.49930034	     -6.98301032	     -5.37227352	     14.22319725	      0.24824162	    -30.24688425	     -0.43599780	     -6.68196441	    -14.92768569	      1.15422135	     -2.30852676	     -8.37540415	    -15.00117822	     -0.43344097	     29.21945443	    107.06339935	    -12.61999298	    -11.50100211	    -11.04265697	     29.49900863	    106.87793277
      2.04000000	    -16.66688274	     -0.94815802	      0.86836057	     -0.51065546	      1.11287683	     -0.59481385	     34.23494538	     -7.60317115	    -13.01462291	     10.45721645	      0.18251286	    -29.36581201	     -1.51196448	     -6.71997232	     37.55013740	     -7.17018014	     -6.39953686	     13.20244202	      0.23042608	    -31.13834446	     -0.05148604	     -6.71997232	    -15.62042086	      1.21989726	     -1.88152528	    -10.85030437	    -14.49744024	     -1.32376596	     28.41240758	    107.29697209	    -14.09788000	    -11.02902689	    -10.93806563	     28.16092232	    106.80041559
      2.05000000	    -16.79514774	     -1.00421620	      0.94334911	     -0.50100302	      1.09235125	     -0.59525579	     35.21489700	     -7.81997048	    -13.55468462	      9.67675283	      0.16889120	    -30.26987695	     -0.54260166	     -6.72759163	     38.73856807	     -7.38949439	     -7.08161621	     12.69662894	      0.22159798	    -32.09404439	      0.32981156	     -6.72759163	    -16.29918666	      1.31081307	     -1.45079032	    -13.16169489	    -13.91772967	     -1.68984304	     27.46133323	    107.35705915	    -15.70056014	    -10.50890466	    -11.05204038	     27.24398044	    106.75369062
      2.06000000	    -16.80128740	     -1.00299047	      1.02517423	     -0.49124268	      1.07088453	     -0.59555825	     36.20733777	     -8.08708909	    -13.86556990	      9.56193414	      0.16688723	    -30.47051175	     -0.15394963	     -6.73895094	     39.78813817	     -7.52308383	     -7.41439500	     12.50921275	      0.21832695	    -32.78743359	      0.77020595	     -6.73895094	    -17.03419886	      1.31106558	     -1.10758759	    -15.45212384	    -13.28826310	     -2.13919215	     26.60471398	    107.08397422	    -17.29934224	    -10.05946451	    -11.25022491	     26.46599740	    106.39725659
      2.07000000	    -16.40958948	     -1.00980377	      1.03457303	     -0.48149355	      1.04886805	     -0.59572568	     36.92142322	     -8.28927678	    -13.62046175	     10.11831032	      0.17659783	    -30.11117706	     -0.14312580	     -6.75435154	     40.48307349	     -7.69098262	     -7.32927544	     12.90039323	      0.22515434	    -32.57759943	      0.81784142	     -6.75435154	    -18.29001296	      1.30532477	     -1.02689314	    -17.45461740	    -12.72371747	     -2.20941801	     26.26370456	    106.38988321	    -19.19417941	     -9.46759867	    -11.26992712	     26.11010769	    105.69708746
      2.08000000	    -16.47988419	     -0.93373217	      0.91501131	     -0.47221117	      1.02503299	     -0.59579174	     38.60059651	     -8.56933097	    -13.06401422	     11.80909194	      0.20610754	    -30.30630008	     -1.08066741	     -6.88576044	     41.85387662	     -7.86074508	     -7.22565431	     13.83119552	      0.24139990	    -34.36737680	     -0.35770329	     -6.88576044	    -18.93961873	      1.37289933	      0.52443364	    -20.83752948	    -10.82932022	     -8.96705499	     27.61314000	    105.70642871	    -19.65372003	     -9.36081992	     -9.14826740	     23.80071764	    105.60350955
      2.09000000	    -16.30629218	     -0.99044780	      0.82372836	     -0.46275545	      1.00041835	     -0.59575450	     40.05782867	     -8.72455650	    -12.24208919	     13.97806631	      0.24396328	    -30.25322549	     -1.90955602	     -6.91670194	     43.08251682	     -8.14268931	     -6.52822016	     15.45574699	      0.26975367	    -34.73987691	     -1.04218674	     -6.91670194	    -19.79106714	      1.41912123	      0.86643329	    -22.77390161	    -10.07620963	     -9.18543373	     27.07155515	    104.78506724	    -21.40018131	     -8.84057603	     -9.16007643	     23.32460269	    104.58195530
      2.10000000	    -16.08172114	     -1.08938292	      0.65696406	     -0.45311898	      0.97455670	     -0.59572396	     41.51990123	     -8.71745675	    -10.82403535	     16.30655196	      0.28460302	    -31.44104869	     -3.46745055	     -6.97619600	     44.23496498	     -8.34593540	     -5.09666962	     17.21534140	      0.30046439	    -36.23309904	     -2.93856558	     -6.97619600	    -20.58764137	      1.58187058	      1.34670450	    -24.86828286	     -9.23606434	    -10.15684749	     26.97277449	    105.38641258	    -23.05113555	     -8.44608287	     -8.76321713	     22.65549199	    104.60221617
      2.11000000	    -15.87677590	     -1.10562938	      0.51091780	     -0.44327286	      0.94727374	     -0.59598313	     43.14946747	     -8.83505572	     -9.41836662	     18.98886646	      0.33141824	    -32.54222014	     -4.29164542	     -7.00648626	     45.51362315	     -8.40213461	     -3.61376654	     19.58812260	      0.34187723	    -37.41454758	     -4.31205417	     -7.00648626	    -21.19334232	      1.67964515	      1.67943448	    -26.84693402	     -8.45973862	    -10.68521711	     26.58183865	    104.93098510	    -24.75539915	     -7.93500625	     -9.00462851	     22.06077960	    103.84376581
      2.12000000	    -15.70511101	     -1.09840608	      0.34984749	     -0.43405589	      0.91900330	     -0.59635132	     45.07630175	     -8.95428706	     -8.22174688	     23.03402148	      0.40201951	    -29.83290561	     -5.67996929	     -7.05652323	     47.14051943	     -8.49007448	     -2.21257558	     23.91742397	      0.41743780	    -34.35825621	     -6.08193496	     -7.05652323	    -21.76043127	      1.73211944	      1.98316028	    -28.74855865	     -7.70946273	    -11.32891402	     26.51249146	    103.29505952	    -26.48096447	     -7.33320254	     -9.20328663	     21.81888401	    101.90385880
      2.13000000	    -15.54636860	     -1.14103124	      0.17182239	     -0.42542525	      0.88968672	     -0.59660942	     47.27397500	     -8.96400143	     -7.23241978	     29.60255399	      0.51666203	    -18.77109349	     -8.27732982	     -7.19574549	     49.33563771	     -8.78560086	     -1.08365996	     31.23920860	      0.54522705	    -22.96459736	     -7.87593978	     -7.19574549	    -22.30587221	      1.86599070	      2.45096322	    -30.75615581	     -6.82954730	    -13.17486910	     26.71024225	    106.30784343	    -27.93367880	     -6.98280580	     -8.31497215	     21.00715550	    102.37595802
      2.14000000	    -15.49622480	     -1.31203608	     -0.12455330	     -0.41755004	      0.85971111	     -0.59648096	     49.63636452	     -8.49045370	     -5.90818129	     37.31846145	      0.65133002	     -4.60828268	    -12.76329784	     -7.25838327	     51.78635485	     -9.09112348	      0.33352161	     39.39034088	      0.68749114	     -8.47923525	    -10.87867220	     -7.25838327	    -22.77777400	      2.00873541	      2.81718325	    -32.60045845	     -6.17642263	    -13.67581017	     27.74253044	    100.51640278	    -29.78692693	     -6.41142334	     -9.49335792	     22.53139256	     96.82012842
      2.15000000	    -16.01815501	     -1.50240310	     -0.59497751	     -0.41142414	      0.83070519	     -0.59604271	     53.18119136	     -7.96085743	     -4.73271463	     45.15821816	      0.78815959	      7.16682280	    -13.07092388	     -7.29465131	     55.10577854	     -9.62834026	      1.24588299	     47.05702929	      0.82130010	      5.75027094	     -8.26011292	     -7.29465131	    -22.75686761	      2.13105397	      3.23119524	    -33.11795926	     -5.65147285	    -14.30839905	     26.25068632	     99.80731141	    -30.47234230	     -5.74922840	    -11.45113414	     21.60678297	     95.16882208
      2.16000000	    -18.13744690	     -1.32629909	     -1.05330139	     -0.40912561	      0.80313901	     -0.59551746	     59.48039752	     -7.47978109	     -2.75222780	     52.52861997	      0.91679737	     10.22040996	    -16.09631095	     -7.30408255	     60.59896511	     -9.51219044	      2.38390321	     53.62791198	      0.93598364	     10.81680012	    -10.24289709	     -7.30408255	    -21.43323132	      1.82499576	      3.45544033	    -32.94353757	     -5.11279796	    -14.57494719	     25.12549801	     99.66284909	    -30.59329869	     -5.33902331	    -12.19073520	     20.84525365	     94.76368791
      2.17000000	    -20.89377301	     -0.80805578	     -1.29721358	     -0.40792555	      0.77775124	     -0.59517684	     66.98332875	     -7.40015047	     -0.64899561	     59.76235348	      1.04304984	     10.31977480	    -17.62820859	     -7.30745881	     67.31743918	     -9.25527402	      3.00448609	     60.18598510	      1.05044360	     12.53294160	    -10.74092773	     -7.30745881	    -19.53391575	      1.19924468	      3.35150083	    -32.09592226	     -4.48988611	    -14.85161618	     23.72365986	     99.95925861	    -30.17364978	     -4.87451013	    -12.86431927	     19.82788814	     94.80688300
      2.18000000	    -22.89156676	     -0.56486331	     -1.46133912	     -0.40520007	      0.75565076	     -0.59476119	     72.90465139	     -7.15925728	      0.82274573	     66.09082039	      1.15350242	     10.50435807	    -18.68384656	     -7.31062100	     73.12775605	     -9.28547697	      3.54165364	     66.44836710	      1.15974279	     13.04228984	    -10.88711411	     -7.31062100	    -18.55244103	      0.83946732	      3.18611069	    -30.64754816	     -4.01806404	    -15.28001908	     22.26787412	    100.13959129	    -29.31119466	     -4.28205456	    -13.78998816	     18.82620183	     94.74938391
      2.19000000	    -23.59437660	     -0.78646487	     -1.75776972	     -0.40085741	      0.73734432	     -0.59418823	     76.11299815	     -6.59520986	      1.41449476	     70.92644709	      1.23790003	     11.94835896	    -19.42690641	     -7.35582670	     76.83911880	     -9.77928675	      4.20262807	     71.86492592	      1.25427957	     14.49784670	    -10.32448087	     -7.35582670	    -19.18393785	      0.77047488	      2.57952601	    -27.86267547	     -4.21850273	    -14.72662395	     19.52985242	    103.83486225	    -28.71792365	     -2.55274237	    -21.74389882	     20.45938783	     97.01619643
      2.20000000	    -23.89882416	     -1.02064784	     -2.11098500	     -0.39649622	      0.72145809	     -0.59400385	     77.95089591	     -6.12072502	      1.70783262	     74.31817727	      1.29709689	     14.28456926	    -19.73480178	     -7.36234066	     79.24186224	    -10.36301130	      4.76079463	     76.00610676	      1.32655681	     16.89986881	     -9.42922816	     -7.36234066	    -20.39409069	      0.93065338	      2.48334971	    -25.41334736	     -4.09706133	    -15.27645411	     18.75005887	    103.66301751	    -26.93597016	     -1.77474306	    -23.20896950	     20.03182756	     97.08915332
